
<svg xmlns="http://www.w3.org/2000/svg" xmlns:xlink="http://www.w3.org/1999/xlink" viewBox="0 0 1440 900" width="1440" height="900" fill="none">
  <rect width="1440" height="900" fill="#f3f3f3"></rect>
  <g opacity="100%">
    <rect x="0" y="0" width="1440" height="84" fill="#fff" filter="url(#filter_dshadow_6_0_4_0000001a)"></rect>
    <rect x="0" y="83" width="1440" height="1" fill="#e5e7eb"></rect>
  </g>
  <g opacity="100%" mask="url(#mask_fccsfkpron)">
    <text x="20" y="55" font-family="Poppins" font-size="30" fill="#030303" letter-spacing="0" font-weight="600" font-style="normal">Meus Veículos</text>
    <defs>
      <mask id="mask_fccsfkpron">
        <rect x="20" y="25" width="225" height="38" fill="white"></rect>
      </mask>
    </defs>
  </g>
  <g opacity="100%">
    <rect filter="url(#filter_dshadow_0_0_0_00000014)" x="441.5" y="25.5" width="261" height="41" fill="#fcfcfc" rx="12" stroke="#d2d2d7" stroke-width="1"></rect>
    <text x="449.5" y="52" font-family="Open Sans" font-size="16" fill="#94a3b8" letter-spacing="0" font-weight="500" font-style="normal">
      <tspan>Pesquisar por placa ou modelo</tspan>
    </text>
  </g>
  <g opacity="100%">
    <rect filter="url(#filter_dshadow_0_0_0_00000014)" x="723.5" y="25.5" width="146" height="41" fill="#fcfcfc" rx="12" stroke="#d2d2d7" stroke-width="1"></rect>
    <text x="731.5" y="52" font-family="Open Sans" font-size="16" fill="#94a3b8" letter-spacing="0" font-weight="500" font-style="normal">
      <tspan>Tipo de Veículo</tspan>
    </text>
    <svg xmlns="http://www.w3.org/2000/svg" height="14" width="14" viewBox="0 0 24 24" fill="#94a3b8" x="847.5" y="39">
      <path d="M0 0h24v24H0z" fill="none"></path>
      <path d="M16.59 8.59 12 13.17 7.41 8.59 6 10l6 6 6-6z"></path>
    </svg>
  </g>
  <g opacity="100%">
    <rect filter="url(#filter_dshadow_0_0_0_00000014)" x="890.5" y="25.5" width="97" height="41" fill="#fcfcfc" rx="12" stroke="#d2d2d7" stroke-width="1"></rect>
    <text x="898.5" y="52" font-family="Open Sans" font-size="16" fill="#94a3b8" letter-spacing="0" font-weight="500" font-style="normal">
      <tspan>Status</tspan>
    </text>
    <svg xmlns="http://www.w3.org/2000/svg" height="14" width="14" viewBox="0 0 24 24" fill="#94a3b8" x="965.5" y="39">
      <path d="M0 0h24v24H0z" fill="none"></path>
      <path d="M16.59 8.59 12 13.17 7.41 8.59 6 10l6 6 6-6z"></path>
    </svg>
  </g>
  <g opacity="100%">
    <rect filter="url(#filter_dshadow_0_0_0_00000014)" x="1219" y="25" width="205" height="42" fill="#030303" rx="21"></rect>
    <text x="1229.5" y="51.5" font-family="Poppins" font-size="16" fill="#fff" letter-spacing="0" font-weight="600" font-style="normal">
      <tspan>Registrar Novo Veículo</tspan>
    </text>
  </g>
  <g opacity="100%">
    <rect x="16" y="104" width="1408" height="258" fill="#fff" stroke="#e5e7eb" stroke-width="0" rx="12" filter="url(#filter_dshadow_6_0_4_0000001a)"></rect>
  </g>
  <g opacity="100%">
    <rect x="32" y="156" width="1376" height="1" fill="#d3d3d3" stroke="#e5e7eb" stroke-width="0" rx="0" filter="url(#filter_dshadow_0_0_0_00000014)"></rect>
  </g>
  <g opacity="100%">
    <text x="32" y="134" font-family="Open Sans" font-size="16" fill="#030303" letter-spacing="0" font-weight="normal" font-style="normal">Placa</text>
  </g>
  <g opacity="100%">
    <text x="235" y="134" font-family="Open Sans" font-size="16" fill="#030303" letter-spacing="0" font-weight="normal" font-style="normal">Marca e Modelo</text>
  </g>
  <g opacity="100%">
    <text x="495" y="134" font-family="Open Sans" font-size="16" fill="#030303" letter-spacing="0" font-weight="normal" font-style="normal">Ano / Modelo</text>
  </g>
  <g opacity="100%">
    <text x="762" y="134" font-family="Open Sans" font-size="16" fill="#030303" letter-spacing="0" font-weight="normal" font-style="normal">Tipo de Veículo</text>
  </g>
  <g opacity="100%">
    <text x="957" y="134" font-family="Open Sans" font-size="16" fill="#030303" letter-spacing="0" font-weight="normal" font-style="normal">Status</text>
  </g>
  <g opacity="100%">
    <text x="1077" y="134" font-family="Open Sans" font-size="16" fill="#030303" letter-spacing="0" font-weight="normal" font-style="normal">Código QR</text>
  </g>
  <g opacity="100%">
    <text x="1222" y="134" font-family="Open Sans" font-size="16" fill="#030303" letter-spacing="0" font-weight="normal" font-style="normal">Ações</text>
  </g>
  <g opacity="100%">
    <rect x="32" y="200" width="1376" height="1" fill="#d3d3d3" stroke="#e5e7eb" stroke-width="0" rx="0" filter="url(#filter_dshadow_0_0_0_00000014)"></rect>
  </g>
  <g opacity="100%">
    <rect x="32" y="245" width="1376" height="1" fill="#d3d3d3" stroke="#e5e7eb" stroke-width="0" rx="0" filter="url(#filter_dshadow_0_0_0_00000014)"></rect>
  </g>
  <rect></rect>
  <g opacity="100%">
    <rect x="0" y="832" width="1440" height="68" fill="#fff" filter="url(#filter_dshadow_6_0_4_0000001a)"></rect>
    <rect x="0" y="832" width="1440" height="1" fill="#e5e7eb"></rect>
  </g>
  <g opacity="100%">
    <text x="32" y="869.5" font-family="Open Sans" font-size="14" fill="#030303" letter-spacing="0" font-weight="normal" font-style="normal">© 2025 Uyemura Tech. Todos os direitos reservados.</text>
  </g>
  <g opacity="100%">
    <text x="988" y="869.5" font-family="Open Sans" font-size="14" fill="#030303" letter-spacing="0" font-weight="normal" font-style="normal">Política de Privacidade</text>
  </g>
  <g opacity="100%">
    <text x="1316" y="869.5" font-family="Open Sans" font-size="14" fill="#030303" letter-spacing="0" font-weight="normal" font-style="normal">Contate-Nos</text>
  </g>
  <g opacity="100%">
    <text x="1166" y="869.5" font-family="Open Sans" font-size="14" fill="#030303" letter-spacing="0" font-weight="normal" font-style="normal">Termos de Serviço</text>
  </g>
  <g opacity="100%">
    <rect filter="url(#filter_dshadow_0_0_0_00000014)" x="1077.5" y="25.5" width="132" height="41" fill="rgba(0,0,0,0)" stroke="#030303" stroke-width="1" rx="20.5"></rect>
    <text x="1091" y="51.5" font-family="Poppins" font-size="16" fill="#030303" letter-spacing="0" font-weight="600" font-style="normal">
      <tspan>Minha Conta</tspan>
    </text>
  </g>
  <g opacity="100%">
    <rect x="32" y="290" width="1376" height="1" fill="#d3d3d3" stroke="#e5e7eb" stroke-width="0" rx="0" filter="url(#filter_dshadow_0_0_0_00000014)"></rect>
  </g>
  <g opacity="100%">
    <rect x="32" y="335" width="1376" height="1" fill="#d3d3d3" stroke="#e5e7eb" stroke-width="0" rx="0" filter="url(#filter_dshadow_0_0_0_00000014)"></rect>
  </g>
  <g opacity="100%">
    <text x="32" y="273.5" font-family="Open Sans" font-size="14" fill="#030303" letter-spacing="0" font-weight="normal" font-style="normal">LOL201</text>
  </g>
  <g opacity="100%">
    <text x="235" y="271.5" font-family="Open Sans" font-size="14" fill="#030303" letter-spacing="0" font-weight="normal" font-style="normal">Ford Mustang GT</text>
  </g>
  <g opacity="100%">
    <text x="495" y="271.5" font-family="Open Sans" font-size="14" fill="#030303" letter-spacing="0" font-weight="normal" font-style="normal">2020</text>
  </g>
  <g opacity="100%">
    <text x="762" y="271.5" font-family="Open Sans" font-size="14" fill="#030303" letter-spacing="0" font-weight="normal" font-style="normal">Carro</text>
  </g>
  <g opacity="100%">
    <text x="957" y="271.5" font-family="Open Sans" font-size="14" fill="#030303" letter-spacing="0" font-weight="normal" font-style="normal">Disponível</text>
  </g>
  <svg xmlns="http://www.w3.org/2000/svg" viewBox="0 0 448 512" width="17" height="17" fill="#030303" x="1085" y="260" opacity="100%">
    <path d="M0 224h192V32H0v192zM64 96h64v64H64V96zm192-64v192h192V32H256zm128 128h-64V96h64v64zM0 480h192V288H0v192zm64-128h64v64H64v-64zm352-64h32v128h-96v-32h-32v96h-64V288h96v32h64v-32zm0 160h32v32h-32v-32zm-64 0h32v32h-32v-32z"></path>
  </svg>
  <g opacity="100%">
    <rect filter="url(#filter_dshadow_8_0_2_00000029)" x="1173" y="254" width="83" height="28" fill="#94a3b8" rx="6"></rect>
    <text x="1183" y="273.5" font-family="Open Sans" font-size="14" fill="#fff" letter-spacing="0" font-weight="normal" font-style="normal">
      <tspan>Consultar</tspan>
    </text>
  </g>
  <g opacity="100%">
    <rect filter="url(#filter_dshadow_8_0_2_00000029)" x="1267" y="254" width="64" height="28" fill="#94a3b8" rx="6"></rect>
    <text x="1280" y="273.5" font-family="Open Sans" font-size="14" fill="#fff" letter-spacing="0" font-weight="normal" font-style="normal">
      <tspan>Editar</tspan>
    </text>
  </g>
  <g opacity="100%">
    <rect filter="url(#filter_dshadow_8_0_2_00000029)" x="1341" y="254" width="63" height="28" fill="#94a3b8" rx="6"></rect>
    <text x="1351" y="273.5" font-family="Open Sans" font-size="14" fill="#fff" letter-spacing="0" font-weight="normal" font-style="normal">
      <tspan>Excluir</tspan>
    </text>
  </g>
  <g opacity="100%">
    <text x="32" y="227.5" font-family="Open Sans" font-size="14" fill="#030303" letter-spacing="0" font-weight="normal" font-style="normal">AOK203</text>
  </g>
  <g opacity="100%">
    <text x="235" y="225.5" font-family="Open Sans" font-size="14" fill="#030303" letter-spacing="0" font-weight="normal" font-style="normal">Ford GT</text>
  </g>
  <g opacity="100%">
    <text x="495" y="225.5" font-family="Open Sans" font-size="14" fill="#030303" letter-spacing="0" font-weight="normal" font-style="normal">2020</text>
  </g>
  <g opacity="100%">
    <text x="762" y="225.5" font-family="Open Sans" font-size="14" fill="#030303" letter-spacing="0" font-weight="normal" font-style="normal">Carro</text>
  </g>
  <g opacity="100%">
    <text x="957" y="225.5" font-family="Open Sans" font-size="14" fill="#030303" letter-spacing="0" font-weight="normal" font-style="normal">Em Negociação</text>
  </g>
  <svg xmlns="http://www.w3.org/2000/svg" viewBox="0 0 448 512" width="17" height="17" fill="#030303" x="1085" y="214" opacity="100%">
    <path d="M0 224h192V32H0v192zM64 96h64v64H64V96zm192-64v192h192V32H256zm128 128h-64V96h64v64zM0 480h192V288H0v192zm64-128h64v64H64v-64zm352-64h32v128h-96v-32h-32v96h-64V288h96v32h64v-32zm0 160h32v32h-32v-32zm-64 0h32v32h-32v-32z"></path>
  </svg>
  <g opacity="100%">
    <rect filter="url(#filter_dshadow_8_0_2_00000029)" x="1173" y="208" width="83" height="28" fill="#94a3b8" rx="6"></rect>
    <text x="1183" y="227.5" font-family="Open Sans" font-size="14" fill="#fff" letter-spacing="0" font-weight="normal" font-style="normal">
      <tspan>Consultar</tspan>
    </text>
  </g>
  <g opacity="100%">
    <rect filter="url(#filter_dshadow_8_0_2_00000029)" x="1267" y="208" width="64" height="28" fill="#94a3b8" rx="6"></rect>
    <text x="1280" y="227.5" font-family="Open Sans" font-size="14" fill="#fff" letter-spacing="0" font-weight="normal" font-style="normal">
      <tspan>Editar</tspan>
    </text>
  </g>
  <g opacity="100%">
    <rect filter="url(#filter_dshadow_8_0_2_00000029)" x="1341" y="208" width="63" height="28" fill="#94a3b8" rx="6"></rect>
    <text x="1351" y="227.5" font-family="Open Sans" font-size="14" fill="#fff" letter-spacing="0" font-weight="normal" font-style="normal">
      <tspan>Excluir</tspan>
    </text>
  </g>
  <g opacity="100%">
    <text x="32" y="185.5" font-family="Open Sans" font-size="14" fill="#030303" letter-spacing="0" font-weight="normal" font-style="normal">OIE321</text>
  </g>
  <g opacity="100%">
    <text x="235" y="183.5" font-family="Open Sans" font-size="14" fill="#030303" letter-spacing="0" font-weight="normal" font-style="normal">Porsche Carrera GT</text>
  </g>
  <g opacity="100%">
    <text x="495" y="183.5" font-family="Open Sans" font-size="14" fill="#030303" letter-spacing="0" font-weight="normal" font-style="normal">2020</text>
  </g>
  <g opacity="100%">
    <text x="762" y="183.5" font-family="Open Sans" font-size="14" fill="#030303" letter-spacing="0" font-weight="normal" font-style="normal">Carro</text>
  </g>
  <g opacity="100%">
    <text x="957" y="183.5" font-family="Open Sans" font-size="14" fill="#030303" letter-spacing="0" font-weight="normal" font-style="normal">Vendido</text>
  </g>
  <svg xmlns="http://www.w3.org/2000/svg" viewBox="0 0 448 512" width="17" height="17" fill="#030303" x="1085" y="172" opacity="100%">
    <path d="M0 224h192V32H0v192zM64 96h64v64H64V96zm192-64v192h192V32H256zm128 128h-64V96h64v64zM0 480h192V288H0v192zm64-128h64v64H64v-64zm352-64h32v128h-96v-32h-32v96h-64V288h96v32h64v-32zm0 160h32v32h-32v-32zm-64 0h32v32h-32v-32z"></path>
  </svg>
  <g opacity="100%">
    <rect filter="url(#filter_dshadow_8_0_2_00000029)" x="1173" y="166" width="83" height="28" fill="#94a3b8" rx="6"></rect>
    <text x="1183" y="185.5" font-family="Open Sans" font-size="14" fill="#fff" letter-spacing="0" font-weight="normal" font-style="normal">
      <tspan>Consultar</tspan>
    </text>
  </g>
  <g opacity="100%">
    <rect filter="url(#filter_dshadow_8_0_2_00000029)" x="1267" y="166" width="64" height="28" fill="#94a3b8" rx="6"></rect>
    <text x="1280" y="185.5" font-family="Open Sans" font-size="14" fill="#fff" letter-spacing="0" font-weight="normal" font-style="normal">
      <tspan>Editar</tspan>
    </text>
  </g>
  <g opacity="100%">
    <rect filter="url(#filter_dshadow_8_0_2_00000029)" x="1341" y="166" width="63" height="28" fill="#94a3b8" rx="6"></rect>
    <text x="1351" y="185.5" font-family="Open Sans" font-size="14" fill="#fff" letter-spacing="0" font-weight="normal" font-style="normal">
      <tspan>Excluir</tspan>
    </text>
  </g>
  <g opacity="100%">
    <text x="32" y="316.5" font-family="Open Sans" font-size="14" fill="#030303" letter-spacing="0" font-weight="normal" font-style="normal">DOD203</text>
  </g>
  <g opacity="100%">
    <text x="235" y="314.5" font-family="Open Sans" font-size="14" fill="#030303" letter-spacing="0" font-weight="normal" font-style="normal">Nissan Nismo GTR</text>
  </g>
  <g opacity="100%">
    <text x="495" y="314.5" font-family="Open Sans" font-size="14" fill="#030303" letter-spacing="0" font-weight="normal" font-style="normal">2020</text>
  </g>
  <g opacity="100%">
    <text x="762" y="314.5" font-family="Open Sans" font-size="14" fill="#030303" letter-spacing="0" font-weight="normal" font-style="normal">Carro</text>
  </g>
  <g opacity="100%">
    <text x="957" y="314.5" font-family="Open Sans" font-size="14" fill="#030303" letter-spacing="0" font-weight="normal" font-style="normal">Vendido</text>
  </g>
  <svg xmlns="http://www.w3.org/2000/svg" viewBox="0 0 448 512" width="17" height="17" fill="#030303" x="1085" y="303" opacity="100%">
    <path d="M0 224h192V32H0v192zM64 96h64v64H64V96zm192-64v192h192V32H256zm128 128h-64V96h64v64zM0 480h192V288H0v192zm64-128h64v64H64v-64zm352-64h32v128h-96v-32h-32v96h-64V288h96v32h64v-32zm0 160h32v32h-32v-32zm-64 0h32v32h-32v-32z"></path>
  </svg>
  <g opacity="100%">
    <rect filter="url(#filter_dshadow_8_0_2_00000029)" x="1173" y="297" width="83" height="28" fill="#94a3b8" rx="6"></rect>
    <text x="1183" y="316.5" font-family="Open Sans" font-size="14" fill="#fff" letter-spacing="0" font-weight="normal" font-style="normal">
      <tspan>Consultar</tspan>
    </text>
  </g>
  <g opacity="100%">
    <rect filter="url(#filter_dshadow_8_0_2_00000029)" x="1267" y="297" width="64" height="28" fill="#94a3b8" rx="6"></rect>
    <text x="1280" y="316.5" font-family="Open Sans" font-size="14" fill="#fff" letter-spacing="0" font-weight="normal" font-style="normal">
      <tspan>Editar</tspan>
    </text>
  </g>
  <g opacity="100%">
    <rect filter="url(#filter_dshadow_8_0_2_00000029)" x="1341" y="297" width="63" height="28" fill="#94a3b8" rx="6"></rect>
    <text x="1351" y="316.5" font-family="Open Sans" font-size="14" fill="#fff" letter-spacing="0" font-weight="normal" font-style="normal">
      <tspan>Excluir</tspan>
    </text>
  </g>
  <defs>
    <filter id="filter_dshadow_6_0_4_0000001a" color-interpolation-filters="sRGB" filterUnits="userSpaceOnUse">
      <feFlood flood-opacity="0" result="bg-fix"></feFlood>
      <feColorMatrix in="SourceAlpha" type="matrix" values="0 0 0 0 0 0 0 0 0 0 0 0 0 0 0 0 0 0 127 0" result="alpha"></feColorMatrix>
      <feOffset dx="0" dy="4"></feOffset>
      <feGaussianBlur stdDeviation="3"></feGaussianBlur>
      <feComposite in2="alpha" operator="out"></feComposite>
      <feColorMatrix type="matrix" values="0 0 0 0 0 0 0 0 0 0 0 0 0 0 0 0 0 0 0.1 0"></feColorMatrix>
      <feBlend mode="normal" in2="bg-fix" result="bg-fix-filter_dshadow_6_0_4_0000001a"></feBlend>
      <feBlend in="SourceGraphic" in2="bg-fix-filter_dshadow_6_0_4_0000001a" result="shape"></feBlend>
    </filter>
    <filter id="filter_dshadow_0_0_0_00000014" color-interpolation-filters="sRGB" filterUnits="userSpaceOnUse">
      <feFlood flood-opacity="0" result="bg-fix"></feFlood>
      <feColorMatrix in="SourceAlpha" type="matrix" values="0 0 0 0 0 0 0 0 0 0 0 0 0 0 0 0 0 0 127 0" result="alpha"></feColorMatrix>
      <feOffset dx="0" dy="0"></feOffset>
      <feGaussianBlur stdDeviation="0"></feGaussianBlur>
      <feComposite in2="alpha" operator="out"></feComposite>
      <feColorMatrix type="matrix" values="0 0 0 0 0 0 0 0 0 0 0 0 0 0 0 0 0 0 0.08 0"></feColorMatrix>
      <feBlend mode="normal" in2="bg-fix" result="bg-fix-filter_dshadow_0_0_0_00000014"></feBlend>
      <feBlend in="SourceGraphic" in2="bg-fix-filter_dshadow_0_0_0_00000014" result="shape"></feBlend>
    </filter>
    <filter id="filter_dshadow_8_0_2_00000029" color-interpolation-filters="sRGB" filterUnits="userSpaceOnUse">
      <feFlood flood-opacity="0" result="bg-fix"></feFlood>
      <feColorMatrix in="SourceAlpha" type="matrix" values="0 0 0 0 0 0 0 0 0 0 0 0 0 0 0 0 0 0 127 0" result="alpha"></feColorMatrix>
      <feOffset dx="0" dy="2"></feOffset>
      <feGaussianBlur stdDeviation="4"></feGaussianBlur>
      <feComposite in2="alpha" operator="out"></feComposite>
      <feColorMatrix type="matrix" values="0 0 0 0 0 0 0 0 0 0 0 0 0 0 0 0 0 0 0.16 0"></feColorMatrix>
      <feBlend mode="normal" in2="bg-fix" result="bg-fix-filter_dshadow_8_0_2_00000029"></feBlend>
      <feBlend in="SourceGraphic" in2="bg-fix-filter_dshadow_8_0_2_00000029" result="shape"></feBlend>
    </filter>
    <style id="google">@import url(https://fonts.googleapis.com/css2?family=Poppins:ital,wght@0,100;0,200;0,300;0,400;0,500;0,600;0,700;0,800;0,900;1,100;1,200;1,300;1,400;1,500;1,600;1,700;1,800;1,900&amp;display=swap);
@import url(https://fonts.googleapis.com/css2?family=Open+Sans:ital,wght@0,300;0,400;0,500;0,600;0,700;0,800;1,300;1,400;1,500;1,600;1,700;1,800&amp;display=swap);
</style>
    <style id="brand"></style>
  </defs>
</svg>