
<svg xmlns="http://www.w3.org/2000/svg" xmlns:xlink="http://www.w3.org/1999/xlink" viewBox="0 0 1440 904" width="1440" height="904" fill="none">
  <rect width="1440" height="904" fill="#f3f3f3"></rect>
  <g opacity="100%">
    <rect x="0" y="0" width="1440" height="80" fill="#fff" filter="url(#filter_dshadow_6_0_4_0000001a)"></rect>
    <rect x="0" y="79" width="1440" height="1" fill="#e5e7eb"></rect>
  </g>
  <svg xmlns="http://www.w3.org/2000/svg" viewBox="0 0 512 512" width="16" height="16" fill="#030303" x="17" y="32" opacity="100%">
    <path d="M499.99 176h-59.87l-16.64-41.6C406.38 91.63 365.57 64 319.5 64h-127c-46.06 0-86.88 27.63-103.99 70.4L71.87 176H12.01C4.2 176-1.53 183.34.37 190.91l6 24C7.7 220.25 12.5 224 18.01 224h20.07C24.65 235.73 16 252.78 16 272v48c0 16.12 6.16 30.67 16 41.93V416c0 17.67 14.33 32 32 32h32c17.67 0 32-14.33 32-32v-32h256v32c0 17.67 14.33 32 32 32h32c17.67 0 32-14.33 32-32v-54.07c9.84-11.25 16-25.8 16-41.93v-48c0-19.22-8.65-36.27-22.07-48H494c5.51 0 10.31-3.75 11.64-9.09l6-24c1.89-7.57-3.84-14.91-11.65-14.91zm-352.06-17.83c7.29-18.22 24.94-30.17 44.57-30.17h127c19.63 0 37.28 11.95 44.57 30.17L384 208H128l19.93-49.83zM96 319.8c-19.2 0-32-12.76-32-31.9S76.8 256 96 256s48 28.71 48 47.85-28.8 15.95-48 15.95zm320 0c-19.2 0-48 3.19-48-15.95S396.8 256 416 256s32 12.76 32 31.9-12.8 31.9-32 31.9z"></path>
  </svg>
  <g opacity="100%">
    <text x="41" y="47" font-family="Poppins" font-size="20" fill="#030303" letter-spacing="-0.5" font-weight="normal" font-style="normal">Uyemura Tech</text>
  </g>
  <g opacity="100%">
    <rect x="496" y="236" width="448" height="438" fill="#fff" stroke="#e5e7eb" stroke-width="0" rx="12" filter="url(#filter_dshadow_6_0_4_0000001a)"></rect>
  </g>
  <g opacity="100%">
    <text x="528" y="289" font-family="Poppins" font-size="20" fill="#030303" letter-spacing="0" font-weight="700" font-style="normal">Detalhes do Cartão de Crédito</text>
  </g>
  <g opacity="100%">
    <text x="528" y="327" font-family="Poppins" font-size="14" fill="#030303" letter-spacing="0" font-weight="500" font-style="normal">Nome do Titular do Cartão</text>
  </g>
  <g opacity="100%">
    <rect filter="url(#filter_dshadow_0_0_0_00000014)" x="528.5" y="336.5" width="383" height="41" fill="#fcfcfc" rx="12" stroke="#d2d2d7" stroke-width="1"></rect>
    <text x="536.5" y="362.5" font-family="Poppins" font-size="16" fill="#94a3b8" letter-spacing="0" font-weight="500" font-style="normal">
      <tspan>João Silva</tspan>
    </text>
  </g>
  <g opacity="100%">
    <text x="528" y="409" font-family="Poppins" font-size="14" fill="#030303" letter-spacing="0" font-weight="500" font-style="normal">Número do Cartão</text>
  </g>
  <g opacity="100%">
    <rect filter="url(#filter_dshadow_0_0_0_00000014)" x="528.5" y="418.5" width="383" height="41" fill="#fcfcfc" rx="12" stroke="#d2d2d7" stroke-width="1"></rect>
    <text x="536.5" y="444.5" font-family="Poppins" font-size="16" fill="#94a3b8" letter-spacing="0" font-weight="500" font-style="normal">
      <tspan>1234 5678 9012 3456</tspan>
    </text>
  </g>
  <g opacity="100%">
    <text x="528" y="491" font-family="Poppins" font-size="14" fill="#030303" letter-spacing="0" font-weight="500" font-style="normal">Data de Validade</text>
  </g>
  <g opacity="100%">
    <rect filter="url(#filter_dshadow_0_0_0_00000014)" x="528.5" y="500.5" width="183" height="41" fill="#fcfcfc" rx="12" stroke="#d2d2d7" stroke-width="1"></rect>
    <text x="536.5" y="526.5" font-family="Poppins" font-size="16" fill="#94a3b8" letter-spacing="0" font-weight="500" font-style="normal">
      <tspan>MM/AA</tspan>
    </text>
  </g>
  <g opacity="100%">
    <text x="728" y="491" font-family="Poppins" font-size="14" fill="#030303" letter-spacing="0" font-weight="500" font-style="normal">CVV</text>
  </g>
  <g opacity="100%">
    <rect filter="url(#filter_dshadow_0_0_0_00000014)" x="728.5" y="500.5" width="183" height="41" fill="#fcfcfc" rx="12" stroke="#d2d2d7" stroke-width="1"></rect>
    <text x="736.5" y="526.5" font-family="Poppins" font-size="16" fill="#94a3b8" letter-spacing="0" font-weight="500" font-style="normal">
      <tspan>123</tspan>
    </text>
  </g>
  <g opacity="100%">
    <text x="528" y="564" font-family="Poppins" font-size="14" fill="#030303" letter-spacing="0" font-weight="normal" font-style="normal">Suas informações de pagamento estão seguras e</text>
    <text x="528" y="584" font-family="Poppins" font-size="14" fill="#030303" letter-spacing="0" font-weight="normal" font-style="normal">criptografadas.</text>
  </g>
  <g opacity="100%">
    <rect filter="url(#filter_dshadow_0_0_0_00000014)" x="528" y="594" width="384" height="48" fill="#030303" stroke="#e5e7eb" stroke-width="0" rx="12"></rect>
    <text x="669" y="623.5" font-family="Poppins" font-size="16" fill="#fff" letter-spacing="0" font-weight="600" font-style="normal">
      <tspan>Pagar Agora</tspan>
    </text>
  </g>
  <g opacity="100%">
    <rect x="0" y="848" width="1440" height="52" fill="#fff" filter="url(#filter_dshadow_0_0_0_00000014)"></rect>
    <rect x="0" y="848" width="1440" height="1" fill="#e5e7eb"></rect>
  </g>
  <g opacity="100%">
    <text x="16" y="879" font-family="Poppins" font-size="14" fill="#030303" letter-spacing="0" font-weight="normal" font-style="normal">Contate-nos: support@uyemuratech.com</text>
  </g>
  <g opacity="100%">
    <text x="1270" y="879" font-family="Poppins" font-size="14" fill="#030303" letter-spacing="0" font-weight="normal" font-style="normal">Termos e Condições</text>
  </g>
  <g opacity="100%">
    <rect filter="url(#filter_dshadow_0_0_0_00000014)" x="1335" y="19" width="85" height="42" fill="#030303" rx="12"></rect>
    <text x="1354" y="46" font-family="Open Sans" font-size="16" fill="#fff" letter-spacing="0" font-weight="600" font-style="normal">
      <tspan>Voltar</tspan>
    </text>
  </g>
  <defs>
    <filter id="filter_dshadow_6_0_4_0000001a" color-interpolation-filters="sRGB" filterUnits="userSpaceOnUse">
      <feFlood flood-opacity="0" result="bg-fix"></feFlood>
      <feColorMatrix in="SourceAlpha" type="matrix" values="0 0 0 0 0 0 0 0 0 0 0 0 0 0 0 0 0 0 127 0" result="alpha"></feColorMatrix>
      <feOffset dx="0" dy="4"></feOffset>
      <feGaussianBlur stdDeviation="3"></feGaussianBlur>
      <feComposite in2="alpha" operator="out"></feComposite>
      <feColorMatrix type="matrix" values="0 0 0 0 0 0 0 0 0 0 0 0 0 0 0 0 0 0 0.1 0"></feColorMatrix>
      <feBlend mode="normal" in2="bg-fix" result="bg-fix-filter_dshadow_6_0_4_0000001a"></feBlend>
      <feBlend in="SourceGraphic" in2="bg-fix-filter_dshadow_6_0_4_0000001a" result="shape"></feBlend>
    </filter>
    <filter id="filter_dshadow_0_0_0_00000014" color-interpolation-filters="sRGB" filterUnits="userSpaceOnUse">
      <feFlood flood-opacity="0" result="bg-fix"></feFlood>
      <feColorMatrix in="SourceAlpha" type="matrix" values="0 0 0 0 0 0 0 0 0 0 0 0 0 0 0 0 0 0 127 0" result="alpha"></feColorMatrix>
      <feOffset dx="0" dy="0"></feOffset>
      <feGaussianBlur stdDeviation="0"></feGaussianBlur>
      <feComposite in2="alpha" operator="out"></feComposite>
      <feColorMatrix type="matrix" values="0 0 0 0 0 0 0 0 0 0 0 0 0 0 0 0 0 0 0.08 0"></feColorMatrix>
      <feBlend mode="normal" in2="bg-fix" result="bg-fix-filter_dshadow_0_0_0_00000014"></feBlend>
      <feBlend in="SourceGraphic" in2="bg-fix-filter_dshadow_0_0_0_00000014" result="shape"></feBlend>
    </filter>
    <style id="google">@import url(https://fonts.googleapis.com/css2?family=Poppins:ital,wght@0,100;0,200;0,300;0,400;0,500;0,600;0,700;0,800;0,900;1,100;1,200;1,300;1,400;1,500;1,600;1,700;1,800;1,900&amp;display=swap);
@import url(https://fonts.googleapis.com/css2?family=Open+Sans:ital,wght@0,300;0,400;0,500;0,600;0,700;0,800;1,300;1,400;1,500;1,600;1,700;1,800&amp;display=swap);
</style>
    <style id="brand"></style>
  </defs>
</svg>